<?xml version="1.0" encoding="UTF-8" standalone="no"?>
<!DOCTYPE svg PUBLIC "-//W3C//DTD SVG 1.1//EN" "http://www.w3.org/Graphics/SVG/1.1/DTD/svg11.dtd">
<svg width="100%" height="100%" viewBox="0 0 119 94" version="1.1" xmlns="http://www.w3.org/2000/svg" xmlns:xlink="http://www.w3.org/1999/xlink" xml:space="preserve" xmlns:serif="http://www.serif.com/" style="fill-rule:evenodd;clip-rule:evenodd;stroke-linejoin:round;stroke-miterlimit:2;">
    <g id="_0" serif:id="0" transform="matrix(1,0,0,1,61.910702,87.538013)">
        <path id="LWPOLYLINE" d="M45.565,-63.151L45.508,-63.151C44.43,-63.151 43.557,-62.277 43.557,-61.199C43.557,-60.122 44.43,-59.248 45.508,-59.248L45.565,-59.248C48.336,-59.248 50.582,-61.494 50.582,-64.265L50.582,-76.793C50.582,-78.123 50.054,-79.4 49.113,-80.34C48.172,-81.281 46.896,-81.81 45.565,-81.81L-25.249,-81.81C-27.037,-81.81 -28.634,-80.692 -29.245,-79.012L-55.926,-5.706C-56.401,-4.403 -56.209,-2.95 -55.414,-1.813C-54.618,-0.677 -53.318,-0 -51.931,-0L-5.309,-0C-2.538,-0 -0.291,-2.246 -0.291,-5.017L-0.291,-17.127C-0.291,-18.458 -0.82,-19.734 -1.761,-20.675C-2.702,-21.616 -3.978,-22.144 -5.309,-22.144L-5.691,-22.144C-6.169,-22.144 -6.627,-21.955 -6.964,-21.617C-7.302,-21.279 -7.491,-20.822 -7.491,-20.344C-7.491,-19.35 -6.685,-18.544 -5.691,-18.544L-5.309,-18.544C-4.526,-18.544 -3.891,-17.91 -3.891,-17.127L-3.891,-5.017C-3.891,-4.235 -4.526,-3.6 -5.309,-3.6L-14.771,-3.6C-16.199,-3.6 -17.532,-4.317 -18.319,-5.509C-30.155,-23.438 -31.588,-46.301 -22.083,-65.566C-18.263,-73.308 -10.379,-78.21 -1.746,-78.21L45.565,-78.21C46.348,-78.21 46.982,-77.575 46.982,-76.793L46.982,-64.568C46.982,-64.192 46.833,-63.832 46.567,-63.566C46.301,-63.3 45.941,-63.151 45.565,-63.151Z"/>
    </g>
</svg>
